# xmcd
#
# Track frame offsets: 
#        150
#        37302
#        48667
#        78502
#        92880
#        105092
#        119956
#        136179
#        153815
#        164986
#        187246
#
# Disc length: 2814 seconds
#
# Revision: 0
# Processed by: cddbd v1.5.2PL0 Copyright (c) Steve Scherf et al.
# Submitted via: ExactAudioCopy v1.0b3
#
DISCID=9f0afc0b
DTITLE=Kalle Sändare - Boxen e' klar - CD 8 - Blåser i luren
DYEAR=2014
DGENRE=Comedy
TTITLE0=Dans-salongen Ramona söker trio för onsdagar och söndagar
TTITLE1=Varubelåning, att låna på en saxofon
TTITLE2=Saxofon till saly
TTITLE3=Tolfsbo värdshus, torsdagssväng med surströmming
TTITLE4=Varubelåning, är det föreståndaren
TTITLE5=Träffas Allan?
TTITLE6=Arbestförmedlingen
TTITLE7=Min hustru och jag
TTITLE8=Sjung och spela på grammofonskiva
TTITLE9=Förbundsklänningen
TTITLE10=Att åka till Finland
EXTD=
EXTT0=
EXTT1=
EXTT2=
EXTT3=
EXTT4=
EXTT5=
EXTT6=
EXTT7=
EXTT8=
EXTT9=
EXTT10=
PLAYORDER=
